<svg xmlns="http://www.w3.org/2000/svg" viewBox="0 0 2880 1864" width="2880" height="1864">
<defs><radialGradient id="glow" cx="50%" cy="45.0%" r="25.0%"><stop offset="0%" stop-color="#FF6B2B" stop-opacity="0.08"/><stop offset="100%" stop-color="#FF6B2B" stop-opacity="0"/></radialGradient></defs>
<rect width="2880" height="1864" fill="#0D0D0D"/>
<ellipse cx="1440" cy="839" rx="720" ry="720" fill="url(#glow)"/>
<path d="M 1216.63 850.14 L 1213.71 859.85 L 1666.29 859.85 L 1663.37 850.14 Z" fill="#FF6B2B"/>
<path d="M 1381.77 644.72 L 1278.25 644.72 L 1181.2 968.22 L 1698.8 968.22 L 1601.75 644.72 L 1498.23 644.72" fill="none" stroke="#CCCCCC" stroke-width="8.09" stroke-linejoin="miter" stroke-linecap="butt"/>
<path d="M162.7 -151.8V-338Q187.5 -368.2 212.5 -398Q237.5 -427.8 262.5 -457.6Q287.5 -487.5 312.6 -517.4L492.1 -727.5H672.4L365.3 -373H353.3ZM54.3 0V-727.5H204.5V-526.6V-342.5V-270.8V0ZM506.5 0 288.9 -329.8 379.3 -443.9 679.8 0Z" fill="#CCCCCC" transform="translate(1240.85 1205.41) scale(0.144000)"/>
<path d="M204.5 -727.5V0H54.3V-727.5Z" fill="#FF6B2B" transform="translate(1365.48 1205.41) scale(0.144000)"/>
<path d="M54.3 0V-727.5H204.5V-128.7H535V0Z" fill="#CCCCCC" transform="translate(1428.67 1205.41) scale(0.144000)"/>
<path d="M54.3 0V-727.5H212.6L446.3 -355.4Q457.1 -338.4 473.5 -309.7Q490 -281 508.6 -247.8Q527.1 -214.7 543.5 -184.3L526.5 -145.6Q524.7 -178.9 523.4 -222.1Q522 -265.3 521.4 -305.2Q520.8 -345 520.8 -367.5V-727.5H670.9V0H512.2L300.2 -337.1Q287.3 -357.8 267.1 -391.7Q247 -425.6 222.4 -469Q197.9 -512.4 171.2 -560.5L197.5 -577.6Q200.8 -523.9 202.3 -476.7Q203.7 -429.5 204.1 -393.7Q204.5 -357.9 204.5 -337.5V0Z" fill="#CCCCCC" transform="translate(1534.74 1205.41) scale(0.144000)"/>
</svg>
